<svg xmlns="http://www.w3.org/2000/svg" viewBox="0 0 203.32 81.58"><g id="Ebene_2" data-name="Ebene 2"><g id="Layer_1" data-name="Layer 1"><path d="M103.36,81.58a31.73,31.73,0,0,1-12-2.25,29.22,29.22,0,0,1-9.57-6.18,28.86,28.86,0,0,1-6.34-9.21,28.2,28.2,0,0,1-2.3-11.36v-.21A28.19,28.19,0,0,1,75.41,41a29,29,0,0,1,6.39-9.27,30.34,30.34,0,0,1,9.63-6.28,33.26,33.26,0,0,1,24.18,0,29.37,29.37,0,0,1,9.58,6.18,28.77,28.77,0,0,1,6.33,9.21,28.19,28.19,0,0,1,2.3,11.35v.21a28.2,28.2,0,0,1-2.3,11.36A29.07,29.07,0,0,1,125.13,73a30,30,0,0,1-9.63,6.28A31.26,31.26,0,0,1,103.36,81.58Zm.21-13.72a14.79,14.79,0,0,0,6.12-1.2,13.5,13.5,0,0,0,4.56-3.3,14.64,14.64,0,0,0,2.88-4.86,17.52,17.52,0,0,0,1-5.92v-.21a16.56,16.56,0,0,0-1.05-5.91,14.82,14.82,0,0,0-7.74-8.32,14.07,14.07,0,0,0-6-1.26,14.79,14.79,0,0,0-6.12,1.2,13.78,13.78,0,0,0-4.56,3.3,14.59,14.59,0,0,0-2.87,4.87,17.22,17.22,0,0,0-1,5.91v.21a16.57,16.57,0,0,0,1,5.92,15,15,0,0,0,7.69,8.32A13.94,13.94,0,0,0,103.57,67.86Z" style="fill:#FF9900"/><path d="M172.86,81.58a31.68,31.68,0,0,1-12-2.25,29.27,29.27,0,0,1-9.58-6.18,28.68,28.68,0,0,1-6.33-9.21,28,28,0,0,1-2.31-11.36v-.21A28,28,0,0,1,144.92,41a28.81,28.81,0,0,1,6.38-9.27,30.34,30.34,0,0,1,9.63-6.28,33.26,33.26,0,0,1,24.18,0,29.37,29.37,0,0,1,9.58,6.18A28.77,28.77,0,0,1,201,40.81a28.19,28.19,0,0,1,2.3,11.35v.21A28.2,28.2,0,0,1,201,63.73,29,29,0,0,1,194.64,73,30.16,30.16,0,0,1,185,79.27,31.26,31.26,0,0,1,172.86,81.58Zm.21-13.72a14.84,14.84,0,0,0,6.13-1.2,13.46,13.46,0,0,0,4.55-3.3,14.64,14.64,0,0,0,2.88-4.86,17.52,17.52,0,0,0,1-5.92v-.21a16.56,16.56,0,0,0-1.05-5.91,14.82,14.82,0,0,0-7.74-8.32,14.07,14.07,0,0,0-6-1.26,14.79,14.79,0,0,0-6.12,1.2,13.63,13.63,0,0,0-4.55,3.3,14.45,14.45,0,0,0-2.88,4.87,17.22,17.22,0,0,0-1,5.91v.21a16.57,16.57,0,0,0,1.05,5.92,15,15,0,0,0,7.69,8.32A13.94,13.94,0,0,0,173.07,67.86Z" style="fill:#FF9900"/><path d="M32.05,17.48A32,32,0,0,1,4.1,1.12h0A2.19,2.19,0,0,0,0,2.19V49.53a32.05,32.05,0,1,0,32.05-32Zm.15,29.11c-2.43,0-4.41-2.6-4.41-5.8s2-5.8,4.41-5.8,4.41,2.6,4.41,5.8S34.64,46.59,32.2,46.59Zm18.91,0c-2.43,0-4.41-2.6-4.41-5.8s2-5.8,4.41-5.8,4.41,2.6,4.41,5.8S53.55,46.59,51.11,46.59Z" style="fill:#FF9900"/></g></g></svg>